<?xml version="1.0" encoding="UTF-8"?>
<!DOCTYPE svg PUBLIC "-//W3C//DTD SVG 1.1//EN" "http://www.w3.org/Graphics/SVG/1.1/DTD/svg11.dtd">
<svg xmlns="http://www.w3.org/2000/svg" version="1.1" width="512px" height="512px" style="shape-rendering:geometricPrecision; text-rendering:geometricPrecision; image-rendering:optimizeQuality; fill-rule:evenodd; clip-rule:evenodd" xmlns:xlink="http://www.w3.org/1999/xlink">
<g><path style="opacity:0.983" fill="#55596d" d="M 191.5,95.5 C 170.167,95.5 148.833,95.5 127.5,95.5C 127.177,87.9807 130.51,82.814 137.5,80C 152.545,79.1832 167.545,79.3499 182.5,80.5C 188.83,83.491 191.83,88.491 191.5,95.5 Z"/></g>
<g><path style="opacity:0.983" fill="#55596d" d="M 383.5,95.5 C 362.167,95.5 340.833,95.5 319.5,95.5C 319.177,87.9807 322.51,82.814 329.5,80C 344.545,79.1832 359.545,79.3499 374.5,80.5C 380.83,83.491 383.83,88.491 383.5,95.5 Z"/></g>
<g><path style="opacity:0.999" fill="#d6e5ef" d="M 127.5,95.5 C 148.833,95.5 170.167,95.5 191.5,95.5C 196.089,108.768 200.589,122.101 205,135.5C 207.491,138.832 210.658,141.332 214.5,143C 241.5,143.667 268.5,143.667 295.5,143C 299.837,141.661 303.337,139.161 306,135.5C 310.411,122.101 314.911,108.768 319.5,95.5C 340.833,95.5 362.167,95.5 383.5,95.5C 436.609,97.7856 472.442,123.786 491,173.5C 492.717,179.752 494.05,186.086 495,192.5C 495.5,241.832 495.667,291.166 495.5,340.5C 485.764,381.375 459.764,400.875 417.5,399C 406.161,397 395.828,392.667 386.5,386C 366.218,365.54 345.551,345.54 324.5,326C 318.898,322.799 312.898,320.799 306.5,320C 296.172,319.5 285.839,319.334 275.5,319.5C 262.167,319.5 248.833,319.5 235.5,319.5C 224.495,319.333 213.495,319.5 202.5,320C 196.752,320.873 191.419,322.873 186.5,326C 165.836,345.331 145.503,364.997 125.5,385C 98.058,403.926 70.3913,404.259 42.5,386C 27.4197,374.003 18.4197,358.503 15.5,339.5C 15.3333,290.499 15.5,241.499 16,192.5C 26.1577,138.342 58.3243,106.176 112.5,96C 117.489,95.5007 122.489,95.3341 127.5,95.5 Z"/></g>
<g><path style="opacity:1" fill="#a5c3dc" d="M 191.5,95.5 C 234.167,95.5 276.833,95.5 319.5,95.5C 314.911,108.768 310.411,122.101 306,135.5C 303.337,139.161 299.837,141.661 295.5,143C 268.5,143.667 241.5,143.667 214.5,143C 210.658,141.332 207.491,138.832 205,135.5C 200.589,122.101 196.089,108.768 191.5,95.5 Z"/></g>
<g><path style="opacity:1" fill="#0fd2d2" d="M 393.5,138.5 C 410.47,137.298 417.303,144.964 414,161.5C 404.298,173.413 394.631,173.413 385,161.5C 381.699,151.454 384.533,143.787 393.5,138.5 Z"/></g>
<g><path style="opacity:1" fill="#473d4c" d="M 105.5,148.5 C 128.832,147.736 143.999,158.403 151,180.5C 153.364,204.953 142.864,220.786 119.5,228C 93.4034,230.542 77.57,219.042 72,193.5C 71.5762,169.77 82.7429,154.77 105.5,148.5 Z"/></g>
<g><path style="opacity:1" fill="#54596d" d="M 106.5,164.5 C 126.512,164.676 136.012,174.676 135,194.5C 127.823,211.666 115.657,216.5 98.5,209C 87.9425,200.652 85.1092,190.152 90,177.5C 94.1656,171.35 99.6656,167.017 106.5,164.5 Z"/></g>
<g><path style="opacity:1" fill="#a6c3dc" d="M 218.5,167.5 C 233.335,166.833 240.168,173.833 239,188.5C 234.996,197.419 228.163,200.919 218.5,199C 207.569,193.638 204.735,185.472 210,174.5C 212.441,171.546 215.275,169.213 218.5,167.5 Z"/></g>
<g><path style="opacity:1" fill="#a6c3dc" d="M 282.5,167.5 C 297.335,166.833 304.168,173.833 303,188.5C 298.996,197.419 292.163,200.919 282.5,199C 271.569,193.638 268.735,185.472 274,174.5C 276.441,171.546 279.275,169.213 282.5,167.5 Z"/></g>
<g><path style="opacity:1" fill="#fe7092" d="M 361.5,170.5 C 376.332,169.17 383.499,175.837 383,190.5C 376.888,202.761 368.055,205.261 356.5,198C 348.619,187.091 350.286,177.924 361.5,170.5 Z"/></g>
<g><path style="opacity:1" fill="#fe7092" d="M 425.5,170.5 C 440.332,169.17 447.499,175.837 447,190.5C 440.888,202.761 432.055,205.261 420.5,198C 412.619,187.091 414.286,177.924 425.5,170.5 Z"/></g>
<g><path style="opacity:1" fill="#0fd2d2" d="M 393.5,202.5 C 410.47,201.298 417.303,208.964 414,225.5C 404.298,237.413 394.631,237.413 385,225.5C 381.699,215.454 384.533,207.787 393.5,202.5 Z"/></g>
<g><path style="opacity:1" fill="#a5c3db" d="M 183.5,223.5 C 214.569,222.741 230.402,237.741 231,268.5C 225.125,293.535 209.292,305.035 183.5,303C 160.255,295.735 149.755,279.901 152,255.5C 156.683,238.985 167.183,228.318 183.5,223.5 Z"/></g>
<g><path style="opacity:1" fill="#473d4c" d="M 311.5,223.5 C 335.879,221.742 351.712,232.409 359,255.5C 359.833,288 344,303.833 311.5,303C 288.255,295.735 277.755,279.901 280,255.5C 284.683,238.985 295.183,228.318 311.5,223.5 Z"/></g>
<g><path style="opacity:1" fill="#555a6e" d="M 184.5,231.5 C 188.846,231.334 193.179,231.501 197.5,232C 199.329,232.273 200.829,233.107 202,234.5C 203.404,240.044 203.904,245.71 203.5,251.5C 209.262,251.149 214.928,251.649 220.5,253C 222.961,255.827 223.961,259.16 223.5,263C 223.913,267.12 222.913,270.787 220.5,274C 214.928,275.351 209.262,275.851 203.5,275.5C 203.851,281.262 203.351,286.928 202,292.5C 198.787,294.913 195.12,295.913 191,295.5C 187.16,295.961 183.827,294.961 181,292.5C 179.649,286.928 179.149,281.262 179.5,275.5C 162.872,279.371 156.372,273.037 160,256.5C 160.465,255.069 161.299,253.903 162.5,253C 168.044,251.596 173.71,251.096 179.5,251.5C 179.334,246.489 179.501,241.489 180,236.5C 181.025,234.313 182.525,232.646 184.5,231.5 Z"/></g>
<g><path style="opacity:1" fill="#54596d" d="M 313.5,239.5 C 330.772,238.289 340.772,246.122 343.5,263C 340.629,282.272 329.629,289.939 310.5,286C 296.904,278.315 292.738,267.148 298,252.5C 301.869,246.452 307.035,242.118 313.5,239.5 Z"/></g>
<g><path style="opacity:0.987" fill="#a5c3dc" d="M 235.5,319.5 C 234.538,322.757 233.038,325.757 231,328.5C 202.167,357.333 173.333,386.167 144.5,415C 122.765,430.947 98.7648,435.613 72.5,429C 41.3194,418.819 22.486,397.653 16,365.5C 15.5002,356.84 15.3336,348.173 15.5,339.5C 18.4197,358.503 27.4197,374.003 42.5,386C 70.3913,404.259 98.058,403.926 125.5,385C 145.503,364.997 165.836,345.331 186.5,326C 191.419,322.873 196.752,320.873 202.5,320C 213.495,319.5 224.495,319.333 235.5,319.5 Z"/></g>
<g><path style="opacity:0.986" fill="#a5c3dc" d="M 275.5,319.5 C 285.839,319.334 296.172,319.5 306.5,320C 312.898,320.799 318.898,322.799 324.5,326C 345.551,345.54 366.218,365.54 386.5,386C 395.828,392.667 406.161,397 417.5,399C 459.764,400.875 485.764,381.375 495.5,340.5C 498.241,388.892 476.241,419.059 429.5,431C 406.241,434.269 385.241,428.936 366.5,415C 337.667,386.167 308.833,357.333 280,328.5C 277.962,325.757 276.462,322.757 275.5,319.5 Z"/></g>
</svg>
