<?xml version="1.0" encoding="UTF-8"?>
<!DOCTYPE svg PUBLIC "-//W3C//DTD SVG 1.1//EN" "http://www.w3.org/Graphics/SVG/1.1/DTD/svg11.dtd">
<svg xmlns="http://www.w3.org/2000/svg" version="1.1" width="512px" height="512px" style="shape-rendering:geometricPrecision; text-rendering:geometricPrecision; image-rendering:optimizeQuality; fill-rule:evenodd; clip-rule:evenodd" xmlns:xlink="http://www.w3.org/1999/xlink">
<g><path style="opacity:0.983" fill="#193651" d="M 3.5,-0.5 C 80.8333,-0.5 158.167,-0.5 235.5,-0.5C 237.7,1.26244 238.867,3.59578 239,6.5C 239.5,26.4972 239.667,46.4972 239.5,66.5C 250.167,66.5 260.833,66.5 271.5,66.5C 271.333,46.4972 271.5,26.4972 272,6.5C 272.133,3.59578 273.3,1.26244 275.5,-0.5C 352.833,-0.5 430.167,-0.5 507.5,-0.5C 509.167,0.5 510.5,1.83333 511.5,3.5C 511.5,80.5 511.5,157.5 511.5,234.5C 509.918,236.97 507.585,238.47 504.5,239C 484.503,239.5 464.503,239.667 444.5,239.5C 444.5,250.167 444.5,260.833 444.5,271.5C 464.503,271.333 484.503,271.5 504.5,272C 507.404,272.133 509.738,273.3 511.5,275.5C 511.5,352.833 511.5,430.167 511.5,507.5C 510.5,509.167 509.167,510.5 507.5,511.5C 430.167,511.5 352.833,511.5 275.5,511.5C 273.3,509.738 272.133,507.404 272,504.5C 271.5,484.503 271.333,464.503 271.5,444.5C 260.833,444.5 250.167,444.5 239.5,444.5C 239.667,464.503 239.5,484.503 239,504.5C 238.47,507.585 236.97,509.918 234.5,511.5C 157.5,511.5 80.5,511.5 3.5,511.5C 1.83333,510.5 0.5,509.167 -0.5,507.5C -0.5,430.167 -0.5,352.833 -0.5,275.5C 1.26244,273.3 3.59578,272.133 6.5,272C 26.4972,271.5 46.4972,271.333 66.5,271.5C 66.5,260.833 66.5,250.167 66.5,239.5C 46.4972,239.667 26.4972,239.5 6.5,239C 3.59578,238.867 1.26244,237.7 -0.5,235.5C -0.5,158.167 -0.5,80.8333 -0.5,3.5C 0.5,1.83333 1.83333,0.5 3.5,-0.5 Z M 239.5,171.5 C 250.167,171.5 260.833,171.5 271.5,171.5C 271.034,192.9 271.534,214.233 273,235.5C 274.319,237.487 276.152,238.654 278.5,239C 298.831,239.5 319.164,239.667 339.5,239.5C 339.5,250.167 339.5,260.833 339.5,271.5C 318.1,271.034 296.767,271.534 275.5,273C 273.513,274.319 272.346,276.152 272,278.5C 271.5,298.831 271.333,319.164 271.5,339.5C 260.833,339.5 250.167,339.5 239.5,339.5C 239.966,318.1 239.466,296.767 238,275.5C 236.681,273.513 234.848,272.346 232.5,272C 212.169,271.5 191.836,271.333 171.5,271.5C 171.5,260.833 171.5,250.167 171.5,239.5C 191.503,239.667 211.503,239.5 231.5,239C 236,238.5 238.5,236 239,231.5C 239.5,211.503 239.667,191.503 239.5,171.5 Z"/></g>
<g><path style="opacity:1" fill="#fefefe" d="M 15.5,15.5 C 84.5,15.5 153.5,15.5 222.5,15.5C 222.5,84.5 222.5,153.5 222.5,222.5C 153.5,222.5 84.5,222.5 15.5,222.5C 15.5,153.5 15.5,84.5 15.5,15.5 Z"/></g>
<g><path style="opacity:1" fill="#fffefe" d="M 288.5,15.5 C 357.5,15.5 426.5,15.5 495.5,15.5C 495.5,84.5 495.5,153.5 495.5,222.5C 426.5,222.5 357.5,222.5 288.5,222.5C 288.5,153.5 288.5,84.5 288.5,15.5 Z"/></g>
<g><path style="opacity:1" fill="#4ebe9e" d="M 39.5,39.5 C 92.5,39.5 145.5,39.5 198.5,39.5C 198.5,92.5 198.5,145.5 198.5,198.5C 145.5,198.5 92.5,198.5 39.5,198.5C 39.5,145.5 39.5,92.5 39.5,39.5 Z"/></g>
<g><path style="opacity:1" fill="#fcbe5d" d="M 312.5,39.5 C 365.5,39.5 418.5,39.5 471.5,39.5C 471.5,92.5 471.5,145.5 471.5,198.5C 418.5,198.5 365.5,198.5 312.5,198.5C 312.5,145.5 312.5,92.5 312.5,39.5 Z"/></g>
<g><path style="opacity:1" fill="#1a3952" d="M 57.5,55.5 C 62.8333,55.5 68.1667,55.5 73.5,55.5C 73.5,60.8333 73.5,66.1667 73.5,71.5C 68.1667,71.5 62.8333,71.5 57.5,71.5C 57.5,66.1667 57.5,60.8333 57.5,55.5 Z"/></g>
<g><path style="opacity:1" fill="#193751" d="M 164.5,55.5 C 169.833,55.5 175.167,55.5 180.5,55.5C 180.5,60.8333 180.5,66.1667 180.5,71.5C 175.167,71.5 169.833,71.5 164.5,71.5C 164.5,66.1667 164.5,60.8333 164.5,55.5 Z"/></g>
<g><path style="opacity:1" fill="#1c3751" d="M 330.5,55.5 C 335.833,55.5 341.167,55.5 346.5,55.5C 346.5,60.8333 346.5,66.1667 346.5,71.5C 341.167,71.5 335.833,71.5 330.5,71.5C 330.5,66.1667 330.5,60.8333 330.5,55.5 Z"/></g>
<g><path style="opacity:1" fill="#203851" d="M 437.5,55.5 C 442.833,55.5 448.167,55.5 453.5,55.5C 453.5,60.8333 453.5,66.1667 453.5,71.5C 448.167,71.5 442.833,71.5 437.5,71.5C 437.5,66.1667 437.5,60.8333 437.5,55.5 Z"/></g>
<g><path style="opacity:1" fill="#d3d8dd" d="M 271.5,154.5 C 271.5,130.833 271.5,107.167 271.5,83.5C 260.833,83.5 250.167,83.5 239.5,83.5C 239.5,107.167 239.5,130.833 239.5,154.5C 238.502,130.672 238.169,106.672 238.5,82.5C 249.833,82.5 261.167,82.5 272.5,82.5C 272.831,106.672 272.498,130.672 271.5,154.5 Z"/></g>
<g><path style="opacity:1" fill="#fefffe" d="M 271.5,154.5 C 260.833,154.5 250.167,154.5 239.5,154.5C 239.5,130.833 239.5,107.167 239.5,83.5C 250.167,83.5 260.833,83.5 271.5,83.5C 271.5,107.167 271.5,130.833 271.5,154.5 Z"/></g>
<g><path style="opacity:1" fill="#1a3852" d="M 115.5,84.5 C 128.948,82.7352 140.615,86.4018 150.5,95.5C 148.466,98.3686 145.966,100.702 143,102.5C 129.062,92.3563 116.062,93.3563 104,105.5C 96.7133,120.298 99.88,132.131 113.5,141C 124.329,144.417 133.829,142.25 142,134.5C 144.935,136.727 146.935,139.394 148,142.5C 138.823,152.163 127.657,155.663 114.5,153C 94.4519,146.424 85.9519,132.591 89,111.5C 93.3506,97.9836 102.184,88.9836 115.5,84.5 Z"/></g>
<g><path style="opacity:1" fill="#1f3851" d="M 384.5,84.5 C 413.811,83.3114 427.978,97.3114 427,126.5C 419.563,147.479 404.73,155.979 382.5,152C 363.162,144.831 354.995,130.997 358,110.5C 362.113,96.8857 370.946,88.2191 384.5,84.5 Z"/></g>
<g><path style="opacity:1" fill="#f9bc5d" d="M 387.5,94.5 C 405.46,94.1603 415.126,102.994 416.5,121C 413.455,137.022 403.789,144.688 387.5,144C 371.464,137.762 365.631,126.262 370,109.5C 373.889,102.103 379.722,97.103 387.5,94.5 Z"/></g>
<g><path style="opacity:1" fill="#1b3a53" d="M 57.5,166.5 C 62.8333,166.5 68.1667,166.5 73.5,166.5C 73.5,171.833 73.5,177.167 73.5,182.5C 68.1667,182.5 62.8333,182.5 57.5,182.5C 57.5,177.167 57.5,171.833 57.5,166.5 Z"/></g>
<g><path style="opacity:1" fill="#1a3852" d="M 164.5,166.5 C 169.833,166.5 175.167,166.5 180.5,166.5C 180.5,171.833 180.5,177.167 180.5,182.5C 175.167,182.5 169.833,182.5 164.5,182.5C 164.5,177.167 164.5,171.833 164.5,166.5 Z"/></g>
<g><path style="opacity:1" fill="#1f3851" d="M 330.5,166.5 C 335.833,166.5 341.167,166.5 346.5,166.5C 346.5,171.833 346.5,177.167 346.5,182.5C 341.167,182.5 335.833,182.5 330.5,182.5C 330.5,177.167 330.5,171.833 330.5,166.5 Z"/></g>
<g><path style="opacity:1" fill="#233a51" d="M 437.5,166.5 C 442.833,166.5 448.167,166.5 453.5,166.5C 453.5,171.833 453.5,177.167 453.5,182.5C 448.167,182.5 442.833,182.5 437.5,182.5C 437.5,177.167 437.5,171.833 437.5,166.5 Z"/></g>
<g><path style="opacity:1" fill="#fefffe" d="M 154.5,239.5 C 154.5,250.167 154.5,260.833 154.5,271.5C 130.833,271.5 107.167,271.5 83.5,271.5C 83.5,260.833 83.5,250.167 83.5,239.5C 107.167,239.5 130.833,239.5 154.5,239.5 Z"/></g>
<g><path style="opacity:1" fill="#fefffe" d="M 356.5,239.5 C 380.167,239.5 403.833,239.5 427.5,239.5C 427.5,250.167 427.5,260.833 427.5,271.5C 403.833,271.5 380.167,271.5 356.5,271.5C 356.5,260.833 356.5,250.167 356.5,239.5 Z"/></g>
<g><path style="opacity:1" fill="#d3d8dd" d="M 154.5,239.5 C 130.833,239.5 107.167,239.5 83.5,239.5C 83.5,250.167 83.5,260.833 83.5,271.5C 107.167,271.5 130.833,271.5 154.5,271.5C 130.672,272.498 106.672,272.831 82.5,272.5C 82.5,261.167 82.5,249.833 82.5,238.5C 106.672,238.169 130.672,238.502 154.5,239.5 Z"/></g>
<g><path style="opacity:1" fill="#d3d8dd" d="M 356.5,239.5 C 380.328,238.502 404.328,238.169 428.5,238.5C 428.5,249.833 428.5,261.167 428.5,272.5C 404.328,272.831 380.328,272.498 356.5,271.5C 380.167,271.5 403.833,271.5 427.5,271.5C 427.5,260.833 427.5,250.167 427.5,239.5C 403.833,239.5 380.167,239.5 356.5,239.5 Z"/></g>
<g><path style="opacity:1" fill="#fefefe" d="M 15.5,288.5 C 84.5,288.5 153.5,288.5 222.5,288.5C 222.5,357.5 222.5,426.5 222.5,495.5C 153.5,495.5 84.5,495.5 15.5,495.5C 15.5,426.5 15.5,357.5 15.5,288.5 Z"/></g>
<g><path style="opacity:1" fill="#fefefe" d="M 288.5,288.5 C 357.5,288.5 426.5,288.5 495.5,288.5C 495.5,357.5 495.5,426.5 495.5,495.5C 426.5,495.5 357.5,495.5 288.5,495.5C 288.5,426.5 288.5,357.5 288.5,288.5 Z"/></g>
<g><path style="opacity:1" fill="#f05f51" d="M 39.5,312.5 C 92.5,312.5 145.5,312.5 198.5,312.5C 198.5,365.5 198.5,418.5 198.5,471.5C 145.5,471.5 92.5,471.5 39.5,471.5C 39.5,418.5 39.5,365.5 39.5,312.5 Z"/></g>
<g><path style="opacity:1" fill="#2da1da" d="M 312.5,312.5 C 365.5,312.5 418.5,312.5 471.5,312.5C 471.5,365.5 471.5,418.5 471.5,471.5C 418.5,471.5 365.5,471.5 312.5,471.5C 312.5,418.5 312.5,365.5 312.5,312.5 Z"/></g>
<g><path style="opacity:1" fill="#233751" d="M 57.5,328.5 C 62.8333,328.5 68.1667,328.5 73.5,328.5C 73.5,333.833 73.5,339.167 73.5,344.5C 68.1667,344.5 62.8333,344.5 57.5,344.5C 57.5,339.167 57.5,333.833 57.5,328.5 Z"/></g>
<g><path style="opacity:1" fill="#1e3651" d="M 164.5,328.5 C 169.833,328.5 175.167,328.5 180.5,328.5C 180.5,333.833 180.5,339.167 180.5,344.5C 175.167,344.5 169.833,344.5 164.5,344.5C 164.5,339.167 164.5,333.833 164.5,328.5 Z"/></g>
<g><path style="opacity:1" fill="#193853" d="M 330.5,328.5 C 335.833,328.5 341.167,328.5 346.5,328.5C 346.5,333.833 346.5,339.167 346.5,344.5C 341.167,344.5 335.833,344.5 330.5,344.5C 330.5,339.167 330.5,333.833 330.5,328.5 Z"/></g>
<g><path style="opacity:1" fill="#193955" d="M 437.5,328.5 C 442.833,328.5 448.167,328.5 453.5,328.5C 453.5,333.833 453.5,339.167 453.5,344.5C 448.167,344.5 442.833,344.5 437.5,344.5C 437.5,339.167 437.5,333.833 437.5,328.5 Z"/></g>
<g><path style="opacity:1" fill="#d3d8dd" d="M 239.5,356.5 C 239.5,380.167 239.5,403.833 239.5,427.5C 250.167,427.5 260.833,427.5 271.5,427.5C 271.5,403.833 271.5,380.167 271.5,356.5C 272.498,380.328 272.831,404.328 272.5,428.5C 261.167,428.5 249.833,428.5 238.5,428.5C 238.169,404.328 238.502,380.328 239.5,356.5 Z"/></g>
<g><path style="opacity:1" fill="#fefffe" d="M 239.5,356.5 C 250.167,356.5 260.833,356.5 271.5,356.5C 271.5,380.167 271.5,403.833 271.5,427.5C 260.833,427.5 250.167,427.5 239.5,427.5C 239.5,403.833 239.5,380.167 239.5,356.5 Z"/></g>
<g><path style="opacity:1" fill="#193a56" d="M 367.5,357.5 C 383.167,357.5 398.833,357.5 414.5,357.5C 414.5,361.5 414.5,365.5 414.5,369.5C 402.5,369.5 390.5,369.5 378.5,369.5C 378.5,375.167 378.5,380.833 378.5,386.5C 389.167,386.5 399.833,386.5 410.5,386.5C 410.5,390.167 410.5,393.833 410.5,397.5C 399.833,397.5 389.167,397.5 378.5,397.5C 378.5,403.167 378.5,408.833 378.5,414.5C 390.833,414.5 403.167,414.5 415.5,414.5C 415.5,418.167 415.5,421.833 415.5,425.5C 399.5,425.5 383.5,425.5 367.5,425.5C 367.5,402.833 367.5,380.167 367.5,357.5 Z"/></g>
<g><path style="opacity:1" fill="#1f3651" d="M 88.5,358.5 C 97.8393,358.334 107.173,358.5 116.5,359C 132.199,359.263 142.699,366.763 148,381.5C 150.142,393.343 148.142,404.343 142,414.5C 136.862,420.486 130.362,423.986 122.5,425C 111.172,425.5 99.8382,425.667 88.5,425.5C 88.5,403.167 88.5,380.833 88.5,358.5 Z"/></g>
<g><path style="opacity:1" fill="#f05f51" d="M 100.5,369.5 C 107.175,369.334 113.842,369.5 120.5,370C 132.018,372.536 137.685,379.703 137.5,391.5C 138.015,404.336 132.015,411.836 119.5,414C 113.175,414.5 106.842,414.666 100.5,414.5C 100.5,399.5 100.5,384.5 100.5,369.5 Z"/></g>
<g><path style="opacity:1" fill="#213751" d="M 57.5,439.5 C 62.8333,439.5 68.1667,439.5 73.5,439.5C 73.5,444.833 73.5,450.167 73.5,455.5C 68.1667,455.5 62.8333,455.5 57.5,455.5C 57.5,450.167 57.5,444.833 57.5,439.5 Z"/></g>
<g><path style="opacity:1" fill="#1c3651" d="M 164.5,439.5 C 169.833,439.5 175.167,439.5 180.5,439.5C 180.5,444.833 180.5,450.167 180.5,455.5C 175.167,455.5 169.833,455.5 164.5,455.5C 164.5,450.167 164.5,444.833 164.5,439.5 Z"/></g>
<g><path style="opacity:1" fill="#193752" d="M 330.5,439.5 C 335.833,439.5 341.167,439.5 346.5,439.5C 346.5,444.833 346.5,450.167 346.5,455.5C 341.167,455.5 335.833,455.5 330.5,455.5C 330.5,450.167 330.5,444.833 330.5,439.5 Z"/></g>
<g><path style="opacity:1" fill="#193854" d="M 437.5,439.5 C 442.833,439.5 448.167,439.5 453.5,439.5C 453.5,444.833 453.5,450.167 453.5,455.5C 448.167,455.5 442.833,455.5 437.5,455.5C 437.5,450.167 437.5,444.833 437.5,439.5 Z"/></g>
</svg>
